<?xml version="1.0" encoding="utf-8"?>
<!-- Generator: Adobe Illustrator 16.0.0, SVG Export Plug-In . SVG Version: 6.00 Build 0)  -->
<!DOCTYPE svg PUBLIC "-//W3C//DTD SVG 1.1//EN" "http://www.w3.org/Graphics/SVG/1.1/DTD/svg11.dtd">
<svg version="1.1" id="Layer_1" xmlns="http://www.w3.org/2000/svg" xmlns:xlink="http://www.w3.org/1999/xlink" x="0px" y="0px"
	 width="800px" height="500px" viewBox="0 0 800 500" enable-background="new 0 0 800 500" xml:space="preserve">
<g id="LIRIKOS">
	<path id="LIRIKOS-1" fill="none" stroke="#000000" stroke-miterlimit="10" d="M204.465,254.711h-59.326V148.083"/>
	<path id="LIRIKOS-2" fill="none" stroke="#000000" stroke-miterlimit="10" d="M219.805,254.711V148.083"/>
	<path id="LIRIKOS-3" fill="none" stroke="#000000" stroke-miterlimit="10" d="M257.613,254.711V149.506
		c6.961-1.424,16.928-2.215,26.42-2.215c14.713,0,24.205,2.689,30.85,8.701c5.379,4.746,8.385,12.023,8.385,20.25
		c0,14.08-8.859,23.414-20.092,27.211v0.475c8.227,2.848,13.131,10.441,15.662,21.516c3.48,14.871,6.012,25.154,8.227,29.267
		h-14.238c-1.74-3.006-4.113-12.181-7.119-25.47c-3.164-14.713-8.859-20.25-21.357-20.725"/>
	<path id="LIRIKOS-4" fill="none" stroke="#000000" stroke-miterlimit="10" d="M342.722,254.711V148.083"/>
	<path id="LIRIKOS-5" fill="none" stroke="#000000" stroke-miterlimit="10" d="M394.294,254.711 M394.294,148.083v51.416h0.475
		c2.848-4.113,5.695-7.91,8.385-11.391l32.59-40.025h17.086l-38.602,45.246l41.607,61.382"/>
	<path id="LIRIKOS-6" fill="none" stroke="#000000" stroke-miterlimit="10" d="M472.233,202.964C472,213,474,224,478.971,232.804
		c1.182,2.209,2.521,4.341,4.025,6.38c1.504,2.038,3.171,3.982,5.004,5.816c12,11,32,12,42-2c1.7-2.5,3.23-5.12,4.583-7.829
		c1.353-2.711,2.529-5.512,3.521-8.387C546,205,543,179,528,160c-8-9-22-13-33-7c-16,8-21,27-22.558,43.185
		C472.293,198.434,472.223,200.695,472.233,202.964z"/>
	<path id="LIRIKOS-7" fill="none" stroke="#000000" stroke-miterlimit="10" d="M571.884,239.074C581,248,595,250,608,248
		c15-2,23-20,17-34c-8-15-26-16-39.997-20.987c-2.503-0.841-4.726-2.094-6.642-3.652c-9.584-7.778-11.528-23.195-2.361-32.361
		c13-13,35-15,51.477-5.448"/>
</g>
</svg>
