<svg id="brand-geulrara-calli" width="800" height="500" viewBox="0 0 800 500">
  <g id="heart-mask">
    <g>
      <path id="heart-path" d="M687.4,346a93.4,93.4,0,0,0,6.91-7.53c2.66-4.7,15.31-13.8,16.15-14.74,1.25-1.41,11.13-10.35,1.57-19.44,0,0-9.1-8-16.47,9.4,0,0-3.92-15.05-13.8-14.11-11.14,2.82-9.25,19.76,10,36.07" stroke-width="10"/>
    </g>
  </g>
  <g id="calli-mask">
    <g>
      <path id="calli-path-5" d="M671.35,421.14c7.64-6.1,17.81-38.66,17.3-62.06-4.58,60.54-9.66,73.76,16.79,78.34,15.26,5.09,30.53-15.77,30-38.15" />
      <path id="calli-path-4" d="M615.39,414c11.19-11.19,50.88-75.8,7.63-115-21.87-11.7-47.82,42.23-44.26,65.12,3.56,23.91,15.26,71.23,54.44,73.77,23.91,2.55,32-15.26,32-15.26" />
      <path id="calli-path-3" d="M516.69,413.51c14.76-13.73,58-88,25.95-120.57-14.75-17.3-49.35,20.86-51.89,59.52s9.16,88,64.1,92.59c29,3.06,38.67-10.17,38.67-10.17" />
      <path id="calli-path-2" d="M440.89,392.14c-19.33-16.28-37.65-5.08-45.28,22.39-.51,15.77,5.6,28.49,23.91,29.51s31.55-28.49,29-48.84c1,26.45,4.58,60,42.74,34.59" />
      <path id="calli-path-1" d="M381.37,345.85s-22.9-33.07-57.06-29.18c-25.69,4.05-54.53,32-57.23,68-.91,46,32.89,59.94,44.16,64,45.06,12.62,67.07-26,67.07-26" />
    </g>
  </g>
  <g id="geulrara-mask">
    <g >
      <path id="geulrara-path-9" d="M691.67,216.33c-20.67-6.66-30,11.34-29.34,18s9.34,30.67,30,10c4.67-8.66,8.67-22,7.34-24.66,2.66,12.66-4.67,24,10,30.66,10.66,4,18-7.33,18-7.33" fill="none" />
      <path id="geulrara-path-8" d="M607,242.33c11.33,14.67,23.33,6,23.33-28.66C623.67,233,623,235,627.67,252.33c4.66-19.33,12.66-30.66,28.66-29.33" />
      <path id="geulrara-path-7" d="M573.67,216.33c-17.34,20.67-8,33.34,5.33,35.34s23.33-10.67,25.33-16,8-18-5.33-24.67-20.67,8-31.33,4.67" />
      <path id="geulrara-path-6" d="M525.67,193.67s-10,33.33-3.34,62c7.34-46.67,37.14-42.35,41.34-42.67" />
      <path id="geulrara-path-5" d="M462.33,229c18.67-16.67,37.3-66.12,42-98s-.14-86.16-24.66-91.33c-15.55-2.26-52.38,48.79-47.34,91.33,5.3,62.47,16,77.31,25.34,92.67,9,9.86,17.12,16.65,26,19.33A35.66,35.66,0,0,0,505,245" />
      <path id="geulrara-path-4" d="M363.67,199s-13.35,41.19-7.34,49.33c2.46,4.59,10.15,9.17,19.91,9.44,18.09.56,23.91-24.56,23.91-24.56l5.52-30.88s-16.67,48,15.33,50c22,1.34,34.67-16,34.67-16" />
      <path id="geulrara-path-3" d="M281,257s58.67-28.67,42.67-52c-10-10-30.67-.67-38,12-12,17.33,4.66,70.67,63.33,40" />
      <path id="geulrara-path-2" d="M193,204.33,260.33,203s-24,1.33-26.66,26.67c-3.34,49.33-7.34,75.33-14,108C203,391,185,415,171.67,435.67c-34,35.33-59.34,35.33-72,26-21.34-19.34,10.66-67.34,26-86,20-26.67,107.33-86,107.33-86s24.67-15.37,47.65-30.87" />
      <path id="geulrara-path-1" d="M268.33,137s2-10-26-44c-50.66-43.33-104-27.33-124.66-12C89,99.67,79,139,78.33,173s24,71.33,54.67,79.33,44,4.67,56,0,28-12.66,38-22.66" />
    </g>
  </g>
</svg>
