<?xml version="1.0" encoding="UTF-8" standalone="no"?>
<!-- Created with Inkscape (http://www.inkscape.org/) -->

<svg
   width="1920"
   height="1080"
   viewBox="0 0 508 285.75"   
   id="svg5"
   
   >
  <sodipodi:namedview
     id="namedview7"
     pagecolor="#ffffff"
     bordercolor="#666666"
     borderopacity="1.0"
     inkscape:pageshadow="2"
     inkscape:pageopacity="0.0"
     inkscape:pagecheckerboard="0"
     inkscape:document-units="px"
     showgrid="false"
     inkscape:zoom="0.5828125"
     inkscape:cx="960"
     inkscape:cy="677.74799"
     inkscape:window-width="1332"
     inkscape:window-height="1040"
     inkscape:window-x="7"
     inkscape:window-y="56"
     inkscape:window-maximized="0"
     inkscape:current-layer="layer1" />
  <defs
     id="defs2">
    <inkscape:perspective
       sodipodi:type="inkscape:persp3d"
       inkscape:vp_x="39.495978 : 34.374553 : 1"
       inkscape:vp_y="0 : 1000 : 0"
       inkscape:vp_z="547.49597 : 34.374553 : 1"
       inkscape:persp3d-origin="293.49597 : -13.250447 : 1"
       id="perspective37" />
  </defs>
  <g
     inkscape:label="레이어 1"
     inkscape:groupmode="layer"
     id="layer1">
    <g
       sodipodi:type="inkscape:box3d"
       id="g39"
       style="fill-rule:evenodd;stroke:none;stroke-linejoin:round"
       inkscape:perspectiveID="#perspective37"
       inkscape:corner0="10.65625 : 1.4325534 : 0 : 1"
       inkscape:corner7="5.505814 : 0.38053852 : 0.25 : 1">
      <path
         sodipodi:type="inkscape:box3dside"
         id="path51"
         style="fill:#e9e9ff;fill-rule:evenodd;stroke:none;stroke-linejoin:round"
         inkscape:box3dsidetype="11"
         d="M 71.495977,135.056 95.891845,46.377441 V 202.09737 l -24.395868,21.31684 z"
         points="95.891845,46.377441 95.891845,202.09737 71.495977,223.41421 71.495977,135.056 " />
      <path
         sodipodi:type="inkscape:box3dside"
         id="path41"
         style="fill:#353564;fill-rule:evenodd;stroke:none;stroke-linejoin:round"
         inkscape:box3dsidetype="6"
         d="m 61.286862,132.56121 v 90.25329 l 10.209115,0.59971 V 135.056 Z"
         points="61.286862,222.8145 71.495977,223.41421 71.495977,135.056 61.286862,132.56121 " />
      <path
         sodipodi:type="inkscape:box3dside"
         id="path43"
         style="fill:#4d4d9f;fill-rule:evenodd;stroke:none;stroke-linejoin:round"
         inkscape:box3dsidetype="5"
         d="M 61.286862,132.56121 78.537978,38.499948 95.891845,46.377441 71.495977,135.056 Z"
         points="78.537978,38.499948 95.891845,46.377441 71.495977,135.056 61.286862,132.56121 " />
      <path
         sodipodi:type="inkscape:box3dside"
         id="path49"
         style="fill:#afafde;fill-rule:evenodd;stroke:none;stroke-linejoin:round"
         inkscape:box3dsidetype="13"
         d="m 61.286862,222.8145 17.251116,-22.61075 17.353867,1.89362 -24.395868,21.31684 z"
         points="78.537978,200.20375 95.891845,202.09737 71.495977,223.41421 61.286862,222.8145 " />
      <path
         sodipodi:type="inkscape:box3dside"
         id="path47"
         style="fill:#d7d7ff;fill-rule:evenodd;stroke:none;stroke-linejoin:round"
         inkscape:box3dsidetype="14"
         d="M 78.537978,38.499948 V 200.20375 l 17.353867,1.89362 V 46.377441 Z"
         points="78.537978,200.20375 95.891845,202.09737 95.891845,46.377441 78.537978,38.499948 " />
      <path
         sodipodi:type="inkscape:box3dside"
         id="path45"
         style="fill:#8686bf;fill-rule:evenodd;stroke:none;stroke-linejoin:round"
         inkscape:box3dsidetype="3"
         d="M 61.286862,132.56121 78.537978,38.499948 V 200.20375 L 61.286862,222.8145 Z"
         points="78.537978,38.499948 78.537978,200.20375 61.286862,222.8145 61.286862,132.56121 " />
    </g>
    <g
       sodipodi:type="inkscape:box3d"
       id="g191"
       style="fill-rule:evenodd;stroke:none;stroke-linejoin:round"
       inkscape:perspectiveID="#perspective37"
       inkscape:corner0="1.7160193 : 0.33427406 : 0 : 1"
       inkscape:corner7="0.81067955 : 0.19154035 : 0.25 : 1">
      <path
         sodipodi:type="inkscape:box3dside"
         id="path203"
         style="fill:#e9e9ff;fill-rule:evenodd;stroke:none;stroke-linejoin:round"
         inkscape:box3dsidetype="11"
         d="m 167.95097,154.73108 56.43547,-42.45977 v 69.26535 l -56.43547,21.31741 z"
         points="224.38644,112.27131 224.38644,181.53666 167.95097,202.85407 167.95097,154.73108 " />
      <path
         sodipodi:type="inkscape:box3dside"
         id="path193"
         style="fill:#353564;fill-rule:evenodd;stroke:none;stroke-linejoin:round"
         inkscape:box3dsidetype="6"
         d="m 133.01519,145.83531 v 52.55253 l 34.93578,4.46623 v -48.12299 z"
         points="133.01519,198.38784 167.95097,202.85407 167.95097,154.73108 133.01519,145.83531 " />
      <path
         sodipodi:type="inkscape:box3dside"
         id="path195"
         style="fill:#4d4d9f;fill-rule:evenodd;stroke:none;stroke-linejoin:round"
         inkscape:box3dsidetype="5"
         d="m 133.01519,145.83531 46.75961,-52.770073 44.61164,19.206073 -56.43547,42.45977 z"
         points="179.7748,93.065237 224.38644,112.27131 167.95097,154.73108 133.01519,145.83531 " />
      <path
         sodipodi:type="inkscape:box3dside"
         id="path201"
         style="fill:#afafde;fill-rule:evenodd;stroke:none;stroke-linejoin:round"
         inkscape:box3dsidetype="13"
         d="m 133.01519,198.38784 46.75961,-26.4938 44.61164,9.64262 -56.43547,21.31741 z"
         points="179.7748,171.89404 224.38644,181.53666 167.95097,202.85407 133.01519,198.38784 " />
      <path
         sodipodi:type="inkscape:box3dside"
         id="path199"
         style="fill:#d7d7ff;fill-rule:evenodd;stroke:none;stroke-linejoin:round"
         inkscape:box3dsidetype="14"
         d="m 179.7748,93.065237 v 78.828803 l 44.61164,9.64262 v -69.26535 z"
         points="179.7748,171.89404 224.38644,181.53666 224.38644,112.27131 179.7748,93.065237 " />
      <path
         sodipodi:type="inkscape:box3dside"
         id="path197"
         style="fill:#8686bf;fill-rule:evenodd;stroke:none;stroke-linejoin:round"
         inkscape:box3dsidetype="3"
         d="M 133.01519,145.83531 179.7748,93.065237 v 78.828803 l -46.75961,26.4938 z"
         points="179.7748,93.065237 179.7748,171.89404 133.01519,198.38784 133.01519,145.83531 " />
    </g>
    <g
       sodipodi:type="inkscape:box3d"
       id="g205"
       style="fill-rule:evenodd;stroke:none;stroke-linejoin:round"
       inkscape:perspectiveID="#perspective37"
       inkscape:corner0="0.7268518 : 0.4252687 : 0 : 1"
       inkscape:corner7="0.31338024 : 0.33961692 : 0.25 : 1">
      <path
         sodipodi:type="inkscape:box3dside"
         id="path217"
         style="fill:#e9e9ff;fill-rule:evenodd;stroke:none;stroke-linejoin:round"
         inkscape:box3dsidetype="11"
         d="M 232.22666,60.342563 283.19868,9.8195604 V 64.605836 l -50.97202,39.064094 z"
         points="283.19868,9.8195604 283.19868,64.605836 232.22666,103.66993 232.22666,60.342563 " />
      <path
         sodipodi:type="inkscape:box3dside"
         id="path207"
         style="fill:#353564;fill-rule:evenodd;stroke:none;stroke-linejoin:round"
         inkscape:box3dsidetype="6"
         d="m 186.58445,32.686327 v 49.59996 l 45.64221,21.383643 V 60.342563 Z"
         points="186.58445,82.286287 232.22666,103.66993 232.22666,60.342563 186.58445,32.686327 " />
      <path
         sodipodi:type="inkscape:box3dside"
         id="path209"
         style="fill:#4d4d9f;fill-rule:evenodd;stroke:none;stroke-linejoin:round"
         inkscape:box3dsidetype="5"
         d="m 186.58445,32.686327 46.30563,-68.846575 50.3086,45.9798084 -50.97202,50.5230026 z"
         points="232.89008,-36.160248 283.19868,9.8195604 232.22666,60.342563 186.58445,32.686327 " />
      <path
         sodipodi:type="inkscape:box3dside"
         id="path215"
         style="fill:#afafde;fill-rule:evenodd;stroke:none;stroke-linejoin:round"
         inkscape:box3dsidetype="13"
         d="m 186.58445,82.286287 46.30563,-53.231773 50.3086,35.551322 -50.97202,39.064094 z"
         points="232.89008,29.054514 283.19868,64.605836 232.22666,103.66993 186.58445,82.286287 " />
      <path
         sodipodi:type="inkscape:box3dside"
         id="path213"
         style="fill:#d7d7ff;fill-rule:evenodd;stroke:none;stroke-linejoin:round"
         inkscape:box3dsidetype="14"
         d="m 232.89008,-36.160248 v 65.214762 l 50.3086,35.551322 V 9.8195604 Z"
         points="232.89008,29.054514 283.19868,64.605836 283.19868,9.8195604 232.89008,-36.160248 " />
      <path
         sodipodi:type="inkscape:box3dside"
         id="path211"
         style="fill:#8686bf;fill-rule:evenodd;stroke:none;stroke-linejoin:round"
         inkscape:box3dsidetype="3"
         d="m 186.58445,32.686327 46.30563,-68.846575 v 65.214762 l -46.30563,53.231773 z"
         points="232.89008,-36.160248 232.89008,29.054514 186.58445,82.286287 186.58445,32.686327 " />
    </g>
  </g>
</svg>
