<?xml version="1.0" encoding="utf-8"?>
<!-- Generator: Adobe Illustrator 16.0.0, SVG Export Plug-In . SVG Version: 6.00 Build 0)  -->
<!DOCTYPE svg PUBLIC "-//W3C//DTD SVG 1.1//EN" "http://www.w3.org/Graphics/SVG/1.1/DTD/svg11.dtd">
<svg version="1.1" id="Layer_1" xmlns="http://www.w3.org/2000/svg" xmlns:xlink="http://www.w3.org/1999/xlink" x="0px" y="0px"
	 width="612px" height="792px" viewBox="0 0 612 792" enable-background="new 0 0 612 792" xml:space="preserve">
<g>
	<g>
		<path d="M106.094,127.848c-8.715,49.101-47.804,85.301-67.89,129.491c-1.323,2.912,2.985,5.456,4.317,2.523
			c20.274-44.606,59.593-81.098,68.394-130.686C111.475,126.025,106.656,124.677,106.094,127.848L106.094,127.848z"/>
	</g>
</g>
<g>
	<g>
		<path d="M103.583,139.509c5.478-11.641,20.453-11.914,31.329-9.34c9.643,2.282,25.354,10.185,23.173,22.479
			c-2.071,11.671-17.767,19.428-27.442,23.456c-8.937,3.721-24.468,9.162-33.267,2.462c-2.567-1.954-5.053,2.392-2.523,4.317
			c10.406,7.923,28.248,1.891,38.749-2.64c11.805-5.093,27.885-14.108,29.607-28.357c1.742-14.412-15.522-23.579-26.967-26.539
			c-12.869-3.329-30.59-1.933-36.976,11.638C97.901,139.885,102.211,142.425,103.583,139.509L103.583,139.509z"/>
	</g>
</g>
<g>
	<g>
		<path d="M194.345,128.667c-14.613-0.584-25.428,5.491-30.234,19.598c-3.618,10.619-2.832,28.224,7.44,35.027
			c10.504,6.958,19.869-4.749,23.38-13.339c3.792-9.277,5.493-23.95-2.358-31.704c-2.295-2.267-5.832,1.267-3.535,3.535
			c9.799,9.679-1.443,48.136-16.033,36.43c-7.337-5.886-6.514-20.685-4.072-28.621c3.724-12.101,13.43-16.406,25.413-15.927
			C197.571,133.796,197.558,128.796,194.345,128.667L194.345,128.667z"/>
	</g>
</g>
<g>
	<g>
		<path d="M222.818,122.318c-2.317,18.22,0.539,37.429-7.623,54.491c1.523,0.199,3.046,0.398,4.569,0.597
			c-5.233-25.041,15.564-57.995,43.827-50.022c3.109,0.877,4.427-3.947,1.329-4.821c-32.124-9.062-55.975,27.476-49.978,56.172
			c0.428,2.049,3.646,2.527,4.569,0.597c8.623-18.026,5.858-37.773,8.306-57.014C228.225,119.125,223.219,119.165,222.818,122.318
			L222.818,122.318z"/>
	</g>
</g>
<g>
	<g>
		<path d="M295.474,82.715c-5.49,37.692-16.752,74.158-27.434,110.62c-0.909,3.102,3.917,4.417,4.821,1.329
			c10.682-36.461,21.943-72.928,27.434-110.62C300.755,80.892,295.938,79.534,295.474,82.715L295.474,82.715z"/>
	</g>
</g>
<g>
	<g>
		<path d="M264.036,119.419c20.938-5.195,42.667-1.777,63.938-1.681c3.225,0.015,3.224-4.985,0-5
			c-21.754-0.099-43.849-3.455-65.267,1.859C259.579,115.374,260.906,120.196,264.036,119.419L264.036,119.419z"/>
	</g>
</g>
<g>
	<g>
		<path d="M416.857,108.667c-5.33-10.109-7.903-25.314-20.411-29.075c-11.621-3.494-21.016,8.503-25.657,17.305
			c-5.487,10.405-8.407,22.143-10.714,33.606c-4.327,21.51-8.11,43.499-14.159,64.602c-0.89,3.106,3.935,4.423,4.822,1.329
			c8.397-29.299,10.222-60.612,20.928-89.248c3.449-9.227,9.647-22.231,20.909-23.076c11.77-0.882,15.87,19.314,19.966,27.08
			C414.045,114.043,418.36,111.517,416.857,108.667L416.857,108.667z"/>
	</g>
</g>
<g>
	<g>
		<path d="M322.42,162.806c1.502-3.645,9.108-4.323,12.293-4.827c7.287-1.151,14.793-1.19,22.152-1.198
			c12.729-0.014,25.657,1.576,38.365,0.781c3.202-0.2,3.222-5.202,0-5c-14.183,0.888-28.601-0.931-42.817-0.751
			c-7.75,0.098-15.628,0.458-23.219,2.132c-4.604,1.016-9.677,2.876-11.597,7.534C316.369,164.458,321.209,165.744,322.42,162.806
			L322.42,162.806z"/>
	</g>
</g>
<g>
	<g>
		<path d="M421.999,149.996c-12.563,1.952-24.598,11.715-28.396,23.984c-1.404,4.539-0.878,9.619,2.584,13.068
			c4.537,4.52,12.186,3.896,17.921,3.056c13.851-2.028,21.229-15.715,23.245-28.515c1.909-12.129-3.167-24.83-17.345-23.187
			c-3.164,0.367-3.199,5.371,0,5c11.719-1.358,13.947,9.093,12.226,18.617c-1.821,10.069-7.479,20.93-18.2,23.046
			c-4.52,0.893-11.107,1.639-14.721-1.961c-2.529-2.52-1.343-7.078-0.146-9.911c4.072-9.641,13.962-16.791,24.161-18.376
			C426.507,154.324,425.152,149.506,421.999,149.996L421.999,149.996z"/>
	</g>
</g>
<g>
	<g>
		<path d="M472.465,75.636c-12.151,39.408-17.777,80.243-23.098,121.019c-0.416,3.19,4.589,3.15,5,0
			c5.264-40.334,10.9-80.71,22.92-119.689C478.239,73.875,473.412,72.564,472.465,75.636L472.465,75.636z"/>
	</g>
</g>
<g>
	<g>
		<path d="M480.43,157.496c1.715,11.782,1.657,23.766,0.796,35.619c-0.234,3.219,4.768,3.196,5,0
			c0.896-12.333,0.809-24.695-0.974-36.948C484.789,152.986,479.972,154.344,480.43,157.496L480.43,157.496z"/>
	</g>
</g>
<g>
	<g>
		<path d="M481.226,139.132c0,0.295,0,0.59,0,0.885c0,1.363,1.138,2.5,2.5,2.5s2.5-1.137,2.5-2.5c0-0.295,0-0.59,0-0.885
			c0-1.363-1.138-2.5-2.5-2.5S481.226,137.77,481.226,139.132L481.226,139.132z"/>
	</g>
</g>
<g>
	<g>
		<path d="M520.009,149.907c-12.542-0.204-21.252,9.562-23.962,21.143c-3.126,13.358,3.246,24.622,14.86,31.123
			c5.741,3.214,13.47,4.845,19.696,2.074c7.298-3.247,10.509-10.878,11.729-18.369c2.602-15.968-8.188-30.577-21.946-37.4
			c-2.878-1.427-5.412,2.885-2.523,4.317c11.492,5.699,20.009,16.369,19.809,29.598c-0.096,6.363-2.735,13.86-8.513,17.057
			c-5.714,3.162-13.197,0.042-18.17-3.032c-9.027-5.583-12.254-14.919-9.884-25.048c2.125-9.083,9.194-16.621,18.904-16.463
			C523.234,154.959,523.229,149.959,520.009,149.907L520.009,149.907z"/>
	</g>
</g>
</svg>
